<?xml version="1.0" encoding="UTF-8"?>
<svg xmlns="http://www.w3.org/2000/svg" xmlns:xlink="http://www.w3.org/1999/xlink" width="100px" height="100px" viewBox="0 0 100 100" version="1.1">
<g id="surface1">
<path style=" stroke:none;fill-rule:nonzero;fill:rgb(5.882353%,50.980395%,24.705882%);fill-opacity:1;" d="M 47.640625 -0.0273438 C 47.828125 -0.0273438 48.015625 -0.0273438 48.203125 -0.03125 C 48.589844 -0.03125 48.980469 -0.03125 49.371094 -0.03125 C 49.761719 -0.03125 50.15625 -0.03125 50.550781 -0.0351562 C 52.835938 -0.046875 55.074219 -0.015625 57.332031 0.332031 C 57.414062 0.347656 57.414062 0.347656 57.5 0.359375 C 63.507812 1.285156 69.382812 3.21875 74.667969 6.25 C 74.738281 6.289062 74.8125 6.332031 74.886719 6.375 C 77.488281 7.855469 79.964844 9.585938 82.242188 11.53125 C 82.484375 11.738281 82.734375 11.941406 82.984375 12.140625 C 83.3125 12.40625 83.613281 12.683594 83.90625 12.988281 C 84.054688 13.140625 84.210938 13.277344 84.375 13.417969 C 84.808594 13.792969 85.214844 14.203125 85.621094 14.613281 C 85.753906 14.746094 85.886719 14.875 86.019531 15.007812 C 86.476562 15.464844 86.914062 15.925781 87.332031 16.417969 C 87.46875 16.566406 87.605469 16.710938 87.738281 16.859375 C 88.148438 17.308594 88.535156 17.773438 88.917969 18.25 C 88.992188 18.34375 89.070312 18.4375 89.148438 18.53125 C 89.796875 19.332031 90.40625 20.160156 91 21 C 91.050781 21.074219 91.050781 21.074219 91.105469 21.148438 C 93.878906 25.070312 96.03125 29.378906 97.582031 33.917969 C 97.625 34.035156 97.625 34.035156 97.667969 34.15625 C 98.824219 37.496094 99.503906 40.992188 99.917969 44.5 C 99.921875 44.550781 99.929688 44.605469 99.9375 44.660156 C 100 45.160156 100.011719 45.652344 100.015625 46.15625 C 100.015625 46.242188 100.015625 46.328125 100.015625 46.417969 C 100.019531 46.707031 100.019531 46.996094 100.019531 47.285156 C 100.019531 47.382812 100.019531 47.484375 100.019531 47.585938 C 100.023438 48.113281 100.023438 48.644531 100.023438 49.175781 C 100.023438 49.605469 100.027344 50.039062 100.03125 50.472656 C 100.042969 52.835938 100.054688 55.160156 99.667969 57.5 C 99.65625 57.558594 99.648438 57.617188 99.636719 57.675781 C 98.523438 64.472656 96.160156 70.910156 92.5 76.75 C 92.453125 76.820312 92.410156 76.894531 92.363281 76.96875 C 91.273438 78.699219 90.0625 80.347656 88.75 81.917969 C 88.714844 81.957031 88.679688 82 88.644531 82.042969 C 88.128906 82.664062 87.59375 83.265625 87.046875 83.859375 C 86.949219 83.964844 86.851562 84.074219 86.753906 84.179688 C 86.296875 84.699219 85.816406 85.195312 85.328125 85.683594 C 85.203125 85.808594 85.078125 85.933594 84.953125 86.058594 C 84.554688 86.457031 84.152344 86.84375 83.726562 87.210938 C 83.53125 87.378906 83.34375 87.554688 83.15625 87.730469 C 82.765625 88.085938 82.359375 88.417969 81.9375 88.742188 C 81.625 88.984375 81.320312 89.234375 81.019531 89.488281 C 79.378906 90.863281 77.519531 92.089844 75.664062 93.15625 C 75.46875 93.265625 75.277344 93.378906 75.082031 93.492188 C 74.273438 93.964844 73.460938 94.414062 72.617188 94.820312 C 72.382812 94.933594 72.148438 95.050781 71.914062 95.164062 C 70.605469 95.8125 69.277344 96.394531 67.917969 96.917969 C 67.777344 96.96875 67.777344 96.96875 67.636719 97.023438 C 63.246094 98.691406 58.273438 100 53.554688 100.015625 C 53.476562 100.015625 53.394531 100.015625 53.3125 100.015625 C 53.046875 100.019531 52.78125 100.019531 52.515625 100.019531 C 52.421875 100.019531 52.332031 100.019531 52.238281 100.019531 C 51.746094 100.023438 51.257812 100.023438 50.769531 100.023438 C 50.371094 100.023438 49.972656 100.027344 49.574219 100.03125 C 47.277344 100.042969 45.023438 100.015625 42.75 99.667969 C 42.644531 99.652344 42.535156 99.632812 42.425781 99.617188 C 36.242188 98.667969 30.226562 96.601562 24.832031 93.417969 C 24.761719 93.375 24.6875 93.332031 24.613281 93.289062 C 21.726562 91.601562 19.015625 89.605469 16.539062 87.351562 C 16.425781 87.25 16.308594 87.144531 16.191406 87.042969 C 15.785156 86.691406 15.398438 86.328125 15.019531 85.949219 C 14.960938 85.890625 14.902344 85.832031 14.84375 85.769531 C 14.71875 85.648438 14.597656 85.523438 14.472656 85.402344 C 14.285156 85.214844 14.101562 85.027344 13.914062 84.839844 C 13.792969 84.71875 13.671875 84.601562 13.550781 84.480469 C 13.496094 84.425781 13.441406 84.371094 13.386719 84.3125 C 13.019531 83.945312 12.671875 83.5625 12.332031 83.167969 C 12.25 83.070312 12.164062 82.972656 12.082031 82.875 C 12 82.78125 11.917969 82.6875 11.839844 82.59375 C 11.800781 82.546875 11.757812 82.503906 11.71875 82.457031 C 11.355469 82.035156 11.011719 81.601562 10.667969 81.167969 C 10.617188 81.105469 10.570312 81.042969 10.519531 80.980469 C 9.03125 79.105469 7.679688 77.082031 6.5 75 C 6.441406 74.894531 6.441406 74.894531 6.382812 74.789062 C 2.9375 68.675781 0.804688 61.980469 0.0820312 55 C 0.078125 54.941406 0.0703125 54.882812 0.0625 54.824219 C -0.03125 53.988281 -0.015625 53.152344 -0.0195312 52.3125 C -0.0195312 52.226562 -0.0195312 52.140625 -0.0195312 52.054688 C -0.0234375 51.597656 -0.0234375 51.144531 -0.0234375 50.691406 C -0.0234375 50.320312 -0.0273438 49.949219 -0.03125 49.582031 C -0.0820312 42.414062 1.421875 35.316406 5.25 27.332031 C 5.320312 27.195312 5.320312 27.195312 5.390625 27.050781 C 6.246094 25.351562 7.214844 23.75 8.265625 22.167969 C 8.304688 22.109375 8.34375 22.050781 8.382812 21.988281 C 8.875 21.253906 9.378906 20.535156 9.917969 19.832031 C 9.992188 19.734375 10.066406 19.636719 10.140625 19.535156 C 10.558594 18.984375 10.996094 18.453125 11.445312 17.925781 C 11.644531 17.695312 11.832031 17.460938 12.019531 17.222656 C 12.921875 16.121094 13.949219 15.128906 14.953125 14.121094 C 15.007812 14.066406 15.0625 14.007812 15.121094 13.953125 C 16.230469 12.839844 16.230469 12.839844 16.832031 12.332031 C 16.925781 12.253906 17.019531 12.171875 17.109375 12.09375 C 19.925781 9.65625 22.984375 7.523438 26.277344 5.785156 C 26.5 5.667969 26.722656 5.546875 26.945312 5.421875 C 31.804688 2.800781 37.207031 1.152344 42.65625 0.347656 C 42.710938 0.339844 42.769531 0.332031 42.824219 0.324219 C 44.433594 0.0898438 46.015625 -0.0273438 47.640625 -0.0273438 Z M 47.640625 -0.0273438 "/>
<path style=" stroke:none;fill-rule:nonzero;fill:rgb(99.607843%,99.607843%,99.607843%);fill-opacity:1;" d="M 47.640625 -0.0273438 C 47.828125 -0.0273438 48.015625 -0.0273438 48.203125 -0.03125 C 48.589844 -0.03125 48.980469 -0.03125 49.371094 -0.03125 C 49.761719 -0.03125 50.15625 -0.03125 50.550781 -0.0351562 C 52.835938 -0.046875 55.074219 -0.015625 57.332031 0.332031 C 57.414062 0.347656 57.414062 0.347656 57.5 0.359375 C 63.507812 1.285156 69.382812 3.21875 74.667969 6.25 C 74.738281 6.289062 74.8125 6.332031 74.886719 6.375 C 77.488281 7.855469 79.964844 9.585938 82.242188 11.53125 C 82.484375 11.738281 82.734375 11.941406 82.984375 12.140625 C 83.3125 12.40625 83.613281 12.683594 83.90625 12.988281 C 84.054688 13.140625 84.210938 13.277344 84.375 13.417969 C 84.808594 13.792969 85.214844 14.203125 85.621094 14.613281 C 85.753906 14.746094 85.886719 14.875 86.019531 15.007812 C 86.476562 15.464844 86.914062 15.925781 87.332031 16.417969 C 87.46875 16.566406 87.605469 16.710938 87.738281 16.859375 C 88.148438 17.308594 88.535156 17.773438 88.917969 18.25 C 88.992188 18.34375 89.070312 18.4375 89.148438 18.53125 C 89.796875 19.332031 90.40625 20.160156 91 21 C 91.050781 21.074219 91.050781 21.074219 91.105469 21.148438 C 93.878906 25.070312 96.03125 29.378906 97.582031 33.917969 C 97.625 34.035156 97.625 34.035156 97.667969 34.15625 C 98.824219 37.496094 99.503906 40.992188 99.917969 44.5 C 99.921875 44.550781 99.929688 44.605469 99.9375 44.660156 C 100 45.160156 100.011719 45.652344 100.015625 46.15625 C 100.015625 46.242188 100.015625 46.328125 100.015625 46.417969 C 100.019531 46.707031 100.019531 46.996094 100.019531 47.285156 C 100.019531 47.382812 100.019531 47.484375 100.019531 47.585938 C 100.023438 48.113281 100.023438 48.644531 100.023438 49.175781 C 100.023438 49.605469 100.027344 50.039062 100.03125 50.472656 C 100.042969 52.835938 100.054688 55.160156 99.667969 57.5 C 99.65625 57.558594 99.648438 57.617188 99.636719 57.675781 C 98.523438 64.472656 96.160156 70.910156 92.5 76.75 C 92.453125 76.820312 92.410156 76.894531 92.363281 76.96875 C 91.273438 78.699219 90.0625 80.347656 88.75 81.917969 C 88.714844 81.957031 88.679688 82 88.644531 82.042969 C 88.128906 82.664062 87.59375 83.265625 87.046875 83.859375 C 86.949219 83.964844 86.851562 84.074219 86.753906 84.179688 C 86.296875 84.699219 85.816406 85.195312 85.328125 85.683594 C 85.203125 85.808594 85.078125 85.933594 84.953125 86.058594 C 84.554688 86.457031 84.152344 86.84375 83.726562 87.210938 C 83.53125 87.378906 83.34375 87.554688 83.15625 87.730469 C 82.765625 88.085938 82.359375 88.417969 81.9375 88.742188 C 81.625 88.984375 81.320312 89.234375 81.019531 89.488281 C 79.378906 90.863281 77.519531 92.089844 75.664062 93.15625 C 75.46875 93.265625 75.277344 93.378906 75.082031 93.492188 C 74.273438 93.964844 73.460938 94.414062 72.617188 94.820312 C 72.382812 94.933594 72.148438 95.050781 71.914062 95.164062 C 70.605469 95.8125 69.277344 96.394531 67.917969 96.917969 C 67.777344 96.96875 67.777344 96.96875 67.636719 97.023438 C 63.246094 98.691406 58.273438 100 53.554688 100.015625 C 53.476562 100.015625 53.394531 100.015625 53.3125 100.015625 C 53.046875 100.019531 52.78125 100.019531 52.515625 100.019531 C 52.421875 100.019531 52.332031 100.019531 52.238281 100.019531 C 51.746094 100.023438 51.257812 100.023438 50.769531 100.023438 C 50.371094 100.023438 49.972656 100.027344 49.574219 100.03125 C 47.277344 100.042969 45.023438 100.015625 42.75 99.667969 C 42.644531 99.652344 42.535156 99.632812 42.425781 99.617188 C 36.242188 98.667969 30.226562 96.601562 24.832031 93.417969 C 24.761719 93.375 24.6875 93.332031 24.613281 93.289062 C 21.726562 91.601562 19.015625 89.605469 16.539062 87.351562 C 16.425781 87.25 16.308594 87.144531 16.191406 87.042969 C 15.785156 86.691406 15.398438 86.328125 15.019531 85.949219 C 14.960938 85.890625 14.902344 85.832031 14.84375 85.769531 C 14.71875 85.648438 14.597656 85.523438 14.472656 85.402344 C 14.285156 85.214844 14.101562 85.027344 13.914062 84.839844 C 13.792969 84.71875 13.671875 84.601562 13.550781 84.480469 C 13.496094 84.425781 13.441406 84.371094 13.386719 84.3125 C 13.019531 83.945312 12.671875 83.5625 12.332031 83.167969 C 12.25 83.070312 12.164062 82.972656 12.082031 82.875 C 12 82.78125 11.917969 82.6875 11.839844 82.59375 C 11.800781 82.546875 11.757812 82.503906 11.71875 82.457031 C 11.355469 82.035156 11.011719 81.601562 10.667969 81.167969 C 10.617188 81.105469 10.570312 81.042969 10.519531 80.980469 C 9.03125 79.105469 7.679688 77.082031 6.5 75 C 6.441406 74.894531 6.441406 74.894531 6.382812 74.789062 C 2.9375 68.675781 0.804688 61.980469 0.0820312 55 C 0.078125 54.941406 0.0703125 54.882812 0.0625 54.824219 C -0.03125 53.988281 -0.015625 53.152344 -0.0195312 52.3125 C -0.0195312 52.226562 -0.0195312 52.140625 -0.0195312 52.054688 C -0.0234375 51.597656 -0.0234375 51.144531 -0.0234375 50.691406 C -0.0234375 50.320312 -0.0273438 49.949219 -0.03125 49.582031 C -0.0820312 42.414062 1.421875 35.316406 5.25 27.332031 C 5.320312 27.195312 5.320312 27.195312 5.390625 27.050781 C 6.246094 25.351562 7.214844 23.75 8.265625 22.167969 C 8.304688 22.109375 8.34375 22.050781 8.382812 21.988281 C 8.875 21.253906 9.378906 20.535156 9.917969 19.832031 C 9.992188 19.734375 10.066406 19.636719 10.140625 19.535156 C 10.558594 18.984375 10.996094 18.453125 11.445312 17.925781 C 11.644531 17.695312 11.832031 17.460938 12.019531 17.222656 C 12.921875 16.121094 13.949219 15.128906 14.953125 14.121094 C 15.007812 14.066406 15.0625 14.007812 15.121094 13.953125 C 16.230469 12.839844 16.230469 12.839844 16.832031 12.332031 C 16.925781 12.253906 17.019531 12.171875 17.109375 12.09375 C 19.925781 9.65625 22.984375 7.523438 26.277344 5.785156 C 26.5 5.667969 26.722656 5.546875 26.945312 5.421875 C 31.804688 2.800781 37.207031 1.152344 42.65625 0.347656 C 42.710938 0.339844 42.769531 0.332031 42.824219 0.324219 C 44.433594 0.0898438 46.015625 -0.0273438 47.640625 -0.0273438 Z M 24.832031 8.25 C 24.769531 8.289062 24.707031 8.324219 24.644531 8.363281 C 22.660156 9.582031 20.746094 10.941406 18.984375 12.464844 C 18.761719 12.65625 18.53125 12.839844 18.300781 13.027344 C 17.367188 13.789062 16.511719 14.640625 15.667969 15.5 C 15.429688 15.738281 15.195312 15.972656 14.957031 16.207031 C 14.425781 16.734375 13.898438 17.257812 13.417969 17.832031 C 13.308594 17.957031 13.308594 17.957031 13.199219 18.082031 C 12.589844 18.78125 12.019531 19.503906 11.464844 20.242188 C 11.339844 20.40625 11.214844 20.570312 11.089844 20.734375 C 9.988281 22.167969 9.003906 23.691406 8.082031 25.25 C 8.046875 25.3125 8.007812 25.378906 7.96875 25.445312 C 5.554688 29.25 5.554688 29.25 4.332031 33.417969 C 13.410156 33.417969 22.484375 33.417969 31.832031 33.417969 C 31.710938 35.066406 31.710938 35.066406 31.582031 36.75 C 31.535156 37.582031 31.492188 38.417969 31.453125 39.25 C 31.441406 39.46875 31.433594 39.6875 31.421875 39.90625 C 31.371094 41.019531 31.324219 42.132812 31.285156 43.246094 C 31.28125 43.351562 31.277344 43.457031 31.277344 43.566406 C 31.257812 44.074219 31.242188 44.578125 31.226562 45.085938 C 31.199219 45.984375 31.160156 46.863281 31 47.75 C 30.980469 47.863281 30.964844 47.976562 30.945312 48.089844 C 30.832031 48.730469 30.679688 49.359375 30.511719 49.988281 C 29.824219 52.558594 29.488281 55.175781 29.484375 57.828125 C 29.484375 57.972656 29.484375 58.113281 29.484375 58.257812 C 29.484375 58.554688 29.484375 58.851562 29.484375 59.152344 C 29.484375 59.453125 29.484375 59.75 29.484375 60.050781 C 29.476562 62.140625 29.515625 64.179688 29.832031 66.25 C 21.417969 66.25 13.003906 66.25 4.332031 66.25 C 4.476562 66.90625 4.476562 66.90625 4.695312 67.519531 C 4.753906 67.660156 4.753906 67.660156 4.816406 67.804688 C 4.855469 67.90625 4.898438 68.007812 4.941406 68.109375 C 4.964844 68.160156 4.988281 68.214844 5.007812 68.269531 C 6.8125 72.574219 9.109375 76.636719 12.082031 80.25 C 12.167969 80.355469 12.167969 80.355469 12.253906 80.460938 C 13.441406 81.925781 14.707031 83.296875 16.035156 84.628906 C 16.113281 84.707031 16.191406 84.785156 16.269531 84.863281 C 16.695312 85.289062 17.128906 85.691406 17.582031 86.082031 C 17.71875 86.203125 17.851562 86.324219 17.984375 86.449219 C 18.421875 86.84375 18.875 87.214844 19.332031 87.582031 C 19.429688 87.660156 19.523438 87.738281 19.617188 87.816406 C 22.023438 89.773438 24.648438 91.425781 27.382812 92.890625 C 27.550781 92.984375 27.722656 93.078125 27.890625 93.171875 C 30.878906 94.832031 34.207031 95.992188 37.503906 96.851562 C 37.71875 96.90625 37.933594 96.96875 38.144531 97.027344 C 41.964844 98.105469 45.992188 98.433594 49.941406 98.4375 C 50.195312 98.4375 50.445312 98.4375 50.699219 98.441406 C 52.347656 98.453125 53.945312 98.378906 55.582031 98.167969 C 55.710938 98.152344 55.839844 98.136719 55.964844 98.121094 C 57.378906 97.953125 58.773438 97.71875 60.167969 97.417969 C 60.300781 97.386719 60.4375 97.359375 60.574219 97.332031 C 61.472656 97.136719 62.363281 96.910156 63.25 96.667969 C 63.332031 96.644531 63.332031 96.644531 63.417969 96.621094 C 66.148438 95.875 68.78125 94.800781 71.332031 93.582031 C 71.410156 93.546875 71.488281 93.511719 71.566406 93.472656 C 74.949219 91.851562 78.121094 89.734375 81 87.332031 C 81.046875 87.292969 81.097656 87.253906 81.144531 87.214844 C 81.75 86.710938 82.335938 86.1875 82.914062 85.652344 C 83.128906 85.453125 83.347656 85.257812 83.566406 85.0625 C 83.953125 84.71875 84.316406 84.359375 84.683594 83.996094 C 84.738281 83.941406 84.792969 83.882812 84.851562 83.828125 C 85.175781 83.503906 85.480469 83.167969 85.78125 82.820312 C 85.972656 82.605469 86.167969 82.394531 86.363281 82.183594 C 86.71875 81.800781 87.054688 81.40625 87.378906 81 C 87.53125 80.816406 87.679688 80.632812 87.832031 80.449219 C 89.382812 78.574219 90.792969 76.53125 92 74.417969 C 92.027344 74.367188 92.058594 74.316406 92.085938 74.265625 C 94.515625 70.4375 94.515625 70.4375 95.75 66.25 C 88.820312 66.25 81.890625 66.25 74.75 66.25 C 74.957031 65.382812 74.957031 65.382812 75.167969 64.5 C 75.269531 63.980469 75.367188 63.464844 75.457031 62.941406 C 75.46875 62.875 75.484375 62.804688 75.496094 62.734375 C 75.898438 60.441406 76.207031 58.152344 76.441406 55.835938 C 76.511719 55.113281 76.59375 54.390625 76.675781 53.667969 C 76.769531 52.832031 76.859375 51.992188 76.945312 51.152344 C 77.164062 48.988281 77.410156 46.828125 77.726562 44.675781 C 77.914062 43.398438 78.015625 42.148438 78.019531 40.855469 C 78.023438 40.742188 78.023438 40.628906 78.027344 40.519531 C 78.03125 39.503906 77.894531 38.738281 77.167969 38 C 76.195312 37.164062 74.917969 37.015625 73.683594 37.070312 C 71.726562 37.21875 69.933594 38.59375 68.691406 40.015625 C 68.0625 40.792969 67.582031 41.640625 67.128906 42.527344 C 66.882812 43.003906 66.617188 43.4375 66.25 43.832031 C 66.207031 43.878906 66.167969 43.929688 66.125 43.976562 C 66 44.082031 66 44.082031 65.75 44.082031 C 65.742188 43.976562 65.734375 43.871094 65.726562 43.761719 C 65.648438 42.746094 65.574219 41.734375 65.496094 40.722656 C 65.457031 40.203125 65.417969 39.683594 65.378906 39.164062 C 65.34375 38.660156 65.304688 38.15625 65.265625 37.652344 C 65.253906 37.460938 65.238281 37.269531 65.222656 37.078125 C 65.203125 36.808594 65.183594 36.539062 65.164062 36.269531 C 65.15625 36.191406 65.152344 36.117188 65.144531 36.039062 C 65.078125 35.164062 64.996094 34.292969 64.917969 33.417969 C 75.089844 33.417969 85.265625 33.417969 95.75 33.417969 C 95.582031 32.863281 95.414062 32.335938 95.199219 31.800781 C 95.15625 31.695312 95.15625 31.695312 95.109375 31.585938 C 94.820312 30.871094 94.503906 30.164062 94.179688 29.460938 C 94.117188 29.320312 94.050781 29.179688 93.988281 29.039062 C 93.476562 27.925781 92.90625 26.859375 92.292969 25.800781 C 92.183594 25.609375 92.074219 25.417969 91.964844 25.226562 C 90.742188 23.074219 89.277344 21.046875 87.703125 19.144531 C 87.59375 19.015625 87.488281 18.882812 87.382812 18.75 C 87.007812 18.28125 86.613281 17.835938 86.203125 17.398438 C 85.988281 17.171875 85.78125 16.941406 85.582031 16.703125 C 85.171875 16.234375 84.722656 15.796875 84.28125 15.355469 C 84.128906 15.203125 83.980469 15.050781 83.828125 14.902344 C 83.34375 14.417969 82.859375 13.941406 82.332031 13.5 C 82.234375 13.414062 82.136719 13.324219 82.035156 13.238281 C 81.390625 12.671875 80.734375 12.128906 80.054688 11.609375 C 79.921875 11.503906 79.785156 11.398438 79.652344 11.292969 C 77.566406 9.664062 75.324219 8.257812 73 7 C 72.929688 6.960938 72.859375 6.921875 72.785156 6.882812 C 69.371094 5.035156 65.683594 3.605469 61.917969 2.667969 C 61.8125 2.640625 61.8125 2.640625 61.707031 2.613281 C 59.289062 2.007812 56.808594 1.667969 54.332031 1.417969 C 54.238281 1.40625 54.144531 1.398438 54.050781 1.386719 C 45.988281 0.5625 37.445312 2.105469 24.832031 8.25 Z M 24.832031 8.25 "/>
<path style=" stroke:none;fill-rule:nonzero;fill:rgb(99.607843%,99.607843%,99.607843%);fill-opacity:1;" d="M 38.25 19.167969 C 38.617188 19.410156 38.730469 19.664062 38.832031 20.082031 C 38.847656 20.136719 38.863281 20.191406 38.875 20.25 C 39.058594 21.074219 39.019531 21.910156 39.015625 22.75 C 39.015625 22.917969 39.015625 23.085938 39.015625 23.253906 C 39.015625 23.695312 39.011719 24.136719 39.011719 24.578125 C 39.007812 25.03125 39.007812 25.480469 39.007812 25.933594 C 39.007812 26.816406 39.003906 27.699219 39 28.582031 C 38.761719 28.664062 38.5625 28.691406 38.3125 28.71875 C 38.226562 28.726562 38.140625 28.738281 38.050781 28.746094 C 37.867188 28.765625 37.6875 28.785156 37.507812 28.800781 C 36.898438 28.871094 36.367188 28.96875 35.917969 29.417969 C 35.945312 29.632812 35.945312 29.632812 36 29.832031 C 36.691406 29.894531 37.261719 29.785156 37.914062 29.566406 C 38.292969 29.4375 38.597656 29.394531 39 29.417969 C 39.09375 29.871094 39.09375 30.3125 39.09375 30.773438 C 39.09375 30.898438 39.09375 30.898438 39.09375 31.03125 C 39.09375 31.3125 39.09375 31.59375 39.09375 31.875 C 39.09375 32.074219 39.09375 32.273438 39.09375 32.472656 C 39.09375 32.890625 39.09375 33.308594 39.09375 33.722656 C 39.09375 34.148438 39.09375 34.570312 39.09375 34.992188 C 39.09375 36.355469 39.09375 37.71875 39.082031 39.082031 C 39.082031 39.195312 39.082031 39.195312 39.082031 39.3125 C 39.078125 39.699219 39.074219 40.085938 39.066406 40.46875 C 39.0625 40.625 39.058594 40.777344 39.058594 40.933594 C 39.035156 41.75 38.9375 42.863281 38.324219 43.464844 C 37.980469 43.71875 37.601562 43.902344 37.21875 44.089844 C 36.085938 44.613281 36.085938 44.613281 35.25 45.5 C 35.195312 45.917969 35.203125 46.082031 35.40625 46.453125 C 35.632812 46.730469 35.695312 46.742188 36.050781 46.796875 C 37.015625 46.78125 37.941406 46.027344 38.691406 45.484375 C 39.167969 45.136719 39.65625 44.816406 40.15625 44.503906 C 40.226562 44.460938 40.296875 44.417969 40.371094 44.371094 C 41.144531 43.894531 41.976562 43.382812 42.917969 43.5 C 43.246094 43.671875 43.480469 43.847656 43.667969 44.167969 C 43.695312 44.449219 43.695312 44.449219 43.6875 44.769531 C 43.6875 44.855469 43.6875 44.855469 43.683594 44.9375 C 43.675781 45.324219 43.644531 45.703125 43.582031 46.082031 C 44.75 45.601562 45.714844 44.511719 46.613281 43.648438 C 47.972656 42.347656 49.210938 41.484375 51.152344 41.484375 C 51.320312 41.484375 51.492188 41.484375 51.664062 41.480469 C 51.828125 41.480469 51.828125 41.480469 51.992188 41.480469 C 52.144531 41.480469 52.144531 41.480469 52.292969 41.480469 C 52.699219 41.507812 53.046875 41.542969 53.339844 41.84375 C 53.488281 42.019531 53.488281 42.019531 53.722656 42.039062 C 54.445312 42.015625 55.152344 41.941406 55.871094 41.84375 C 55.976562 41.828125 56.085938 41.816406 56.199219 41.800781 C 56.621094 41.742188 57.042969 41.6875 57.464844 41.621094 C 58.171875 41.507812 58.867188 41.46875 59.582031 41.46875 C 59.6875 41.464844 59.792969 41.464844 59.898438 41.460938 C 60.84375 41.460938 61.722656 41.597656 62.5 42.167969 C 63.425781 43.171875 63.769531 44.441406 64 45.75 C 64.011719 45.816406 64.023438 45.886719 64.039062 45.957031 C 64.25 47.144531 64.277344 48.335938 64.285156 49.542969 C 64.289062 49.617188 64.289062 49.691406 64.289062 49.769531 C 64.304688 51.191406 64.089844 52.351562 63.441406 53.636719 C 63.398438 53.726562 63.355469 53.8125 63.308594 53.90625 C 62.09375 56.335938 62.09375 56.335938 60.75 56.808594 C 60.636719 56.84375 60.527344 56.878906 60.414062 56.910156 C 57.996094 57.628906 55.957031 59.261719 54.140625 60.957031 C 53.878906 61.203125 53.609375 61.441406 53.335938 61.679688 C 52.972656 62.007812 52.640625 62.367188 52.3125 62.730469 C 52.027344 63.042969 51.738281 63.347656 51.4375 63.644531 C 51.027344 64.050781 50.652344 64.484375 50.28125 64.925781 C 49.480469 65.882812 48.65625 66.804688 47.625 67.519531 C 46.941406 68 46.429688 68.59375 45.917969 69.25 C 45.847656 69.332031 45.78125 69.417969 45.710938 69.503906 C 45.320312 69.984375 44.972656 70.484375 44.660156 71.019531 C 44.628906 71.074219 44.597656 71.128906 44.566406 71.183594 C 44.335938 71.585938 44.273438 71.953125 44.25 72.417969 C 44.660156 72.300781 44.660156 72.300781 44.945312 72 C 45.011719 71.871094 45.074219 71.738281 45.140625 71.609375 C 45.3125 71.308594 45.535156 71.09375 45.832031 70.917969 C 46.078125 70.886719 46.078125 70.886719 46.25 70.917969 C 46.296875 71.53125 46.085938 72.027344 45.875 72.597656 C 45.710938 73.058594 45.632812 73.425781 45.667969 73.917969 C 45.867188 73.917969 45.867188 73.917969 46.082031 73.832031 C 46.207031 73.652344 46.296875 73.5 46.386719 73.300781 C 46.414062 73.246094 46.441406 73.1875 46.46875 73.128906 C 46.691406 72.65625 46.878906 72.175781 47.070312 71.695312 C 47.972656 69.394531 49.339844 67.46875 50.917969 65.582031 C 50.957031 65.535156 51 65.484375 51.042969 65.433594 C 52.109375 64.15625 53.234375 62.910156 54.5 61.832031 C 54.578125 61.765625 54.65625 61.695312 54.738281 61.621094 C 57.019531 59.625 57.019531 59.625 58.070312 59.570312 C 58.128906 59.574219 58.1875 59.578125 58.25 59.582031 C 58.261719 59.949219 58.253906 60.261719 58.167969 60.613281 C 58.050781 61.175781 58.066406 61.730469 58.074219 62.300781 C 58.074219 62.464844 58.074219 62.464844 58.074219 62.628906 C 58.078125 62.890625 58.078125 63.152344 58.082031 63.417969 C 58.285156 63.234375 58.382812 63.085938 58.46875 62.832031 C 58.496094 62.765625 58.519531 62.703125 58.542969 62.636719 C 58.589844 62.5 58.636719 62.367188 58.683594 62.230469 C 58.851562 61.777344 59.042969 61.3125 59.5 61.082031 C 59.636719 61.074219 59.773438 61.074219 59.910156 61.074219 C 60.019531 61.074219 60.019531 61.074219 60.132812 61.070312 C 60.332031 61.082031 60.332031 61.082031 60.582031 61.167969 C 60.847656 61.214844 61.070312 61.222656 61.332031 61.167969 C 61.738281 60.789062 62.003906 60.230469 62.265625 59.746094 C 62.304688 59.671875 62.34375 59.601562 62.382812 59.527344 C 62.714844 58.917969 63.011719 58.296875 63.304688 57.667969 C 63.609375 57.023438 63.9375 56.390625 64.277344 55.761719 C 64.324219 55.671875 64.371094 55.582031 64.421875 55.488281 C 65.167969 54.109375 65.167969 54.109375 65.582031 53.832031 C 65.785156 53.796875 65.785156 53.796875 66 53.832031 C 66.175781 54.007812 66.175781 54.007812 66.339844 54.234375 C 66.539062 54.507812 66.710938 54.738281 67 54.917969 C 67.21875 54.945312 67.21875 54.945312 67.417969 54.917969 C 67.527344 54.824219 67.527344 54.824219 67.511719 54.59375 C 67.507812 53.089844 67.324219 51.628906 67.128906 50.140625 C 67.09375 49.871094 67.0625 49.597656 67.027344 49.328125 C 67.015625 49.246094 67.003906 49.164062 66.992188 49.078125 C 66.894531 48.3125 66.929688 47.6875 67.121094 46.9375 C 67.152344 46.808594 67.152344 46.808594 67.1875 46.675781 C 67.886719 44.007812 68.878906 40.824219 71.417969 39.332031 C 72.425781 38.761719 73.496094 38.375 74.667969 38.582031 C 75.011719 38.78125 75.25 39.027344 75.5 39.332031 C 75.542969 39.382812 75.585938 39.429688 75.632812 39.480469 C 76.28125 40.285156 76.390625 41.34375 76.332031 42.332031 C 76.242188 42.863281 76.078125 43.300781 75.667969 43.667969 C 75.457031 43.777344 75.242188 43.84375 75.015625 43.90625 C 74.957031 43.925781 74.898438 43.941406 74.839844 43.960938 C 74.699219 44.003906 74.558594 44.042969 74.417969 44.082031 C 74.390625 44.222656 74.363281 44.359375 74.332031 44.5 C 74.402344 44.535156 74.402344 44.535156 74.476562 44.566406 C 74.675781 44.671875 74.859375 44.785156 75.046875 44.90625 C 75.109375 44.949219 75.175781 44.988281 75.238281 45.03125 C 75.4375 45.183594 75.550781 45.277344 75.667969 45.5 C 75.691406 45.75 75.703125 45.980469 75.699219 46.230469 C 75.695312 46.34375 75.695312 46.34375 75.695312 46.460938 C 75.671875 47.617188 75.539062 48.769531 75.417969 49.917969 C 75.402344 50.035156 75.402344 50.035156 75.390625 50.15625 C 75.121094 52.660156 74.820312 55.160156 74.476562 57.65625 C 74.433594 57.953125 74.394531 58.25 74.355469 58.546875 C 74.230469 59.476562 74.097656 60.40625 73.953125 61.332031 C 73.917969 61.5625 73.882812 61.789062 73.847656 62.015625 C 73.839844 62.070312 73.832031 62.125 73.824219 62.183594 C 73.765625 62.546875 73.714844 62.910156 73.664062 63.277344 C 73.066406 67.484375 71.269531 71.410156 68.667969 74.75 C 68.605469 74.832031 68.542969 74.910156 68.476562 74.992188 C 67.589844 76.105469 66.589844 77.167969 65.5 78.082031 C 65.457031 78.121094 65.414062 78.15625 65.367188 78.195312 C 63.988281 79.359375 62.515625 80.382812 60.941406 81.261719 C 60.742188 81.375 60.546875 81.488281 60.347656 81.601562 C 57.910156 83.03125 57.910156 83.03125 56.285156 82.78125 C 55.722656 82.71875 55.15625 82.738281 54.589844 82.742188 C 54.316406 82.746094 54.046875 82.746094 53.773438 82.746094 C 53.515625 82.746094 53.257812 82.75 53 82.75 C 52.945312 82.949219 52.945312 82.949219 52.917969 83.167969 C 53.285156 83.652344 53.824219 83.90625 54.417969 84 C 55.175781 84.058594 55.902344 83.949219 56.648438 83.839844 C 57.273438 83.75 57.871094 83.722656 58.5 83.75 C 58.417969 84.472656 57.679688 85.023438 57.148438 85.472656 C 56.972656 85.605469 56.796875 85.691406 56.582031 85.75 C 56.582031 85.804688 56.582031 85.859375 56.582031 85.917969 C 57.433594 86.304688 58.289062 86.597656 59.1875 86.859375 C 59.375 86.914062 59.5625 86.96875 59.746094 87.023438 C 59.863281 87.058594 59.976562 87.09375 60.089844 87.125 C 60.480469 87.242188 60.480469 87.242188 60.667969 87.332031 C 60.660156 87.402344 60.65625 87.46875 60.648438 87.539062 C 60.601562 88.109375 60.570312 88.679688 60.5625 89.25 C 60.5625 89.308594 60.558594 89.367188 60.558594 89.429688 C 60.554688 89.820312 60.628906 90.082031 60.832031 90.417969 C 60.886719 90.472656 60.941406 90.527344 61 90.582031 C 60.59375 90.648438 60.195312 90.683594 59.785156 90.699219 C 59.691406 90.703125 59.691406 90.703125 59.601562 90.703125 C 59.398438 90.710938 59.199219 90.71875 59 90.726562 C 58.859375 90.730469 58.714844 90.738281 58.574219 90.742188 C 58.273438 90.753906 57.972656 90.765625 57.671875 90.773438 C 57.296875 90.789062 56.925781 90.800781 56.550781 90.816406 C 55.105469 90.871094 53.664062 90.917969 52.21875 90.949219 C 50.996094 90.980469 49.773438 91.019531 48.554688 91.078125 C 46.484375 91.171875 44.417969 91.25 42.347656 91.320312 C 41.820312 91.339844 41.289062 91.359375 40.761719 91.378906 C 40.347656 91.394531 39.929688 91.40625 39.515625 91.421875 C 39.320312 91.429688 39.125 91.4375 38.929688 91.445312 C 37.675781 91.488281 36.421875 91.507812 35.167969 91.5 C 35.242188 91.175781 35.316406 90.851562 35.394531 90.527344 C 35.449219 90.300781 35.503906 90.074219 35.554688 89.84375 C 36.480469 85.878906 36.480469 85.878906 37.25 84.082031 C 37.34375 83.84375 37.433594 83.601562 37.519531 83.359375 C 37.542969 83.296875 37.566406 83.234375 37.59375 83.171875 C 37.625 83.082031 37.625 83.082031 37.65625 82.988281 C 37.675781 82.933594 37.695312 82.878906 37.71875 82.824219 C 37.757812 82.632812 37.730469 82.515625 37.667969 82.332031 C 37.550781 82.191406 37.550781 82.191406 37.40625 82.0625 C 37.136719 81.804688 36.890625 81.539062 36.652344 81.257812 C 36.550781 81.140625 36.445312 81.027344 36.339844 80.914062 C 33.433594 77.761719 32.226562 73.160156 31.472656 69.058594 C 31.457031 68.972656 31.457031 68.972656 31.441406 68.886719 C 31.1875 67.492188 31.050781 66.109375 30.964844 64.691406 C 30.949219 64.429688 30.929688 64.167969 30.914062 63.90625 C 30.902344 63.738281 30.894531 63.570312 30.882812 63.398438 C 30.878906 63.324219 30.871094 63.246094 30.867188 63.167969 C 30.835938 62.636719 30.828125 62.113281 30.832031 61.582031 C 30.894531 61.558594 30.957031 61.535156 31.019531 61.507812 C 31.273438 61.40625 31.527344 61.300781 31.78125 61.199219 C 31.871094 61.164062 31.957031 61.125 32.050781 61.089844 C 32.808594 60.777344 33.582031 60.417969 34.167969 59.832031 C 34.246094 59.609375 34.246094 59.609375 34.25 59.417969 C 33.359375 59.347656 32.585938 59.636719 31.75 59.917969 C 31.519531 59.941406 31.316406 59.929688 31.082031 59.917969 C 30.867188 59.589844 30.894531 59.3125 30.898438 58.933594 C 30.898438 58.863281 30.898438 58.789062 30.898438 58.710938 C 30.898438 58.554688 30.898438 58.398438 30.898438 58.242188 C 30.902344 58.011719 30.902344 57.777344 30.902344 57.546875 C 30.902344 56.199219 30.925781 54.847656 31.113281 53.515625 C 31.125 53.433594 31.136719 53.355469 31.148438 53.273438 C 31.378906 51.640625 31.742188 50.128906 32.625 48.71875 C 32.886719 48.277344 32.972656 48.015625 32.917969 47.5 C 32.890625 47.398438 32.863281 47.296875 32.835938 47.191406 C 32.382812 45.414062 32.5625 43.433594 32.566406 41.617188 C 32.566406 41.289062 32.566406 40.964844 32.566406 40.636719 C 32.566406 38.839844 32.585938 37.046875 32.667969 35.25 C 32.671875 35.148438 32.671875 35.148438 32.675781 35.046875 C 32.738281 33.671875 32.878906 32.332031 33.125 30.980469 C 33.300781 30 33.421875 29.019531 33.496094 28.027344 C 33.703125 25.304688 34.121094 21.671875 36.265625 19.707031 C 36.886719 19.207031 37.445312 19.03125 38.25 19.167969 Z M 38.25 19.167969 "/>
<path style=" stroke:none;fill-rule:nonzero;fill:rgb(94.901961%,43.921569%,13.333334%);fill-opacity:1;" d="M 55.082031 1.5 C 55.148438 1.507812 55.210938 1.515625 55.277344 1.523438 C 57.148438 1.734375 58.992188 2.023438 60.832031 2.417969 C 60.90625 2.433594 60.980469 2.449219 61.054688 2.464844 C 66.667969 3.660156 72.164062 6.15625 76.917969 9.332031 C 76.972656 9.371094 77.027344 9.40625 77.085938 9.445312 C 77.9375 10.019531 78.765625 10.625 79.582031 11.25 C 79.632812 11.289062 79.683594 11.328125 79.734375 11.367188 C 80.707031 12.113281 81.636719 12.902344 82.542969 13.726562 C 82.671875 13.84375 82.800781 13.960938 82.933594 14.078125 C 83.488281 14.570312 84.015625 15.085938 84.539062 15.613281 C 84.683594 15.753906 84.824219 15.898438 84.96875 16.042969 C 85.441406 16.511719 85.898438 16.992188 86.332031 17.5 C 86.449219 17.628906 86.570312 17.757812 86.6875 17.886719 C 87.066406 18.304688 87.414062 18.746094 87.761719 19.191406 C 87.917969 19.398438 88.078125 19.597656 88.242188 19.800781 C 90.035156 22.003906 91.546875 24.40625 92.898438 26.898438 C 92.964844 27.019531 93.03125 27.140625 93.097656 27.261719 C 95.75 32.074219 95.75 32.074219 95.75 33.417969 C 85.574219 33.417969 75.398438 33.417969 64.917969 33.417969 C 64.890625 33.527344 64.863281 33.636719 64.832031 33.75 C 64.832031 33.699219 64.828125 33.648438 64.824219 33.597656 C 64.648438 30.921875 64.457031 28.246094 64.238281 25.570312 C 64.128906 24.234375 64.023438 22.898438 63.925781 21.558594 C 63.800781 16.6875 63.800781 16.6875 61.449219 12.640625 C 60.457031 11.871094 59.550781 11.789062 58.335938 11.851562 C 57.359375 11.898438 57.359375 11.898438 57.085938 11.734375 C 56.976562 11.609375 56.976562 11.609375 56.832031 11.332031 C 56.796875 11.265625 56.761719 11.199219 56.726562 11.132812 C 56.695312 11.066406 56.667969 11.003906 56.640625 10.9375 C 56.410156 10.457031 56.101562 10.066406 55.75 9.667969 C 55.703125 9.613281 55.65625 9.558594 55.609375 9.503906 C 54.964844 8.8125 54.09375 8.265625 53.136719 8.210938 C 52.976562 8.207031 52.8125 8.207031 52.652344 8.207031 C 52.566406 8.207031 52.480469 8.210938 52.394531 8.210938 C 51.710938 8.226562 51.1875 8.332031 50.582031 8.667969 C 50.503906 8.710938 50.421875 8.753906 50.339844 8.800781 C 48.800781 9.722656 48.027344 11.105469 47.25 12.667969 C 47.164062 12.664062 47.078125 12.664062 46.992188 12.660156 C 46.671875 12.65625 46.347656 12.652344 46.027344 12.648438 C 45.890625 12.648438 45.75 12.644531 45.613281 12.640625 C 44.046875 12.609375 42.863281 12.957031 41.699219 14.046875 C 40.9375 14.820312 40.414062 15.703125 39.972656 16.6875 C 39.628906 17.25 39.199219 17.40625 38.59375 17.566406 C 36.628906 18.148438 35.257812 19.199219 34.25 21 C 32.996094 23.40625 32.734375 26.128906 32.441406 28.78125 C 32.394531 29.207031 32.34375 29.632812 32.296875 30.058594 C 32.257812 30.378906 32.222656 30.695312 32.1875 31.015625 C 32.179688 31.074219 32.175781 31.132812 32.167969 31.191406 C 32.152344 31.347656 32.132812 31.5 32.117188 31.65625 C 32.085938 31.886719 32.046875 32.105469 32 32.332031 C 31.988281 32.449219 31.980469 32.566406 31.972656 32.683594 C 31.96875 32.746094 31.964844 32.808594 31.964844 32.875 C 31.957031 32.96875 31.957031 32.96875 31.953125 33.066406 C 31.949219 33.132812 31.945312 33.199219 31.941406 33.265625 C 31.933594 33.429688 31.925781 33.589844 31.917969 33.75 C 31.890625 33.640625 31.863281 33.53125 31.832031 33.417969 C 22.757812 33.417969 13.683594 33.417969 4.332031 33.417969 C 4.480469 32.753906 4.667969 32.203125 4.925781 31.582031 C 4.960938 31.507812 4.960938 31.507812 4.992188 31.425781 C 5.550781 30.089844 6.183594 28.792969 6.832031 27.5 C 6.894531 27.378906 6.894531 27.378906 6.953125 27.253906 C 8.722656 23.730469 11.09375 20.433594 13.746094 17.523438 C 13.902344 17.351562 14.050781 17.175781 14.203125 17 C 14.558594 16.589844 14.945312 16.214844 15.332031 15.832031 C 15.59375 15.574219 15.855469 15.3125 16.113281 15.050781 C 16.25 14.910156 16.386719 14.773438 16.527344 14.636719 C 16.59375 14.566406 16.664062 14.496094 16.730469 14.425781 C 17.140625 14.015625 17.558594 13.625 18 13.25 C 18.042969 13.210938 18.089844 13.171875 18.132812 13.132812 C 18.824219 12.539062 19.53125 11.972656 20.25 11.417969 C 20.308594 11.371094 20.367188 11.324219 20.429688 11.277344 C 22.011719 10.054688 23.675781 8.90625 25.417969 7.917969 C 25.523438 7.855469 25.523438 7.855469 25.636719 7.789062 C 32.066406 4.097656 39.175781 1.847656 46.582031 1.332031 C 46.652344 1.328125 46.722656 1.324219 46.796875 1.320312 C 49.554688 1.136719 52.335938 1.191406 55.082031 1.5 Z M 55.082031 1.5 "/>
<path style=" stroke:none;fill-rule:nonzero;fill:rgb(0.784314%,0.784314%,0.784314%);fill-opacity:1;" d="M 54.375 8.449219 C 54.75 8.691406 55.085938 8.953125 55.417969 9.25 C 55.503906 9.324219 55.503906 9.324219 55.589844 9.398438 C 56.179688 9.941406 56.617188 10.644531 56.96875 11.359375 C 57.070312 11.589844 57.070312 11.589844 57.25 11.75 C 57.5 11.765625 57.5 11.765625 57.792969 11.75 C 57.90625 11.75 58.019531 11.746094 58.128906 11.746094 C 58.304688 11.738281 58.480469 11.734375 58.65625 11.726562 C 59.769531 11.6875 60.695312 11.894531 61.554688 12.644531 C 63.085938 14.132812 63.480469 15.941406 63.703125 18 C 63.714844 18.097656 63.726562 18.195312 63.738281 18.292969 C 63.867188 19.535156 63.960938 20.785156 64.054688 22.03125 C 64.082031 22.382812 64.109375 22.734375 64.136719 23.085938 C 64.1875 23.75 64.238281 24.414062 64.289062 25.078125 C 64.34375 25.828125 64.402344 26.578125 64.457031 27.328125 C 64.542969 28.4375 64.628906 29.546875 64.710938 30.660156 C 64.902344 33.179688 64.902344 33.179688 65.101562 35.699219 C 65.121094 35.953125 65.144531 36.203125 65.164062 36.457031 C 65.175781 36.589844 65.183594 36.722656 65.195312 36.855469 C 65.390625 39.265625 65.582031 41.671875 65.75 44.082031 C 66.207031 43.984375 66.394531 43.703125 66.667969 43.332031 C 66.9375 42.898438 67.179688 42.449219 67.421875 42 C 68.644531 39.734375 70.359375 37.976562 72.863281 37.214844 C 74.140625 36.90625 75.550781 37.003906 76.714844 37.644531 C 77.351562 38.070312 77.78125 38.609375 77.964844 39.359375 C 78.03125 39.777344 78.015625 40.203125 78.015625 40.625 C 78.015625 40.792969 78.015625 40.957031 78.019531 41.121094 C 78.019531 42.492188 77.839844 43.835938 77.644531 45.1875 C 77.300781 47.582031 77.054688 49.980469 76.820312 52.386719 C 76.792969 52.65625 76.765625 52.925781 76.742188 53.195312 C 76.730469 53.292969 76.730469 53.292969 76.722656 53.390625 C 76.597656 54.667969 76.445312 55.941406 76.285156 57.214844 C 76.242188 57.5625 76.203125 57.90625 76.160156 58.253906 C 75.820312 61.117188 75.363281 63.972656 74.582031 66.75 C 74.566406 66.808594 74.550781 66.867188 74.535156 66.925781 C 73.699219 69.863281 72.46875 72.75 70.582031 75.167969 C 70.496094 75.277344 70.496094 75.277344 70.410156 75.390625 C 69.738281 76.242188 69.027344 77.0625 68.289062 77.859375 C 68.070312 78.097656 67.855469 78.339844 67.644531 78.585938 C 67.476562 78.777344 67.304688 78.964844 67.136719 79.152344 C 66.742188 79.589844 66.371094 80.042969 66 80.5 C 65.917969 80.597656 65.839844 80.695312 65.757812 80.796875 C 64.226562 82.660156 63.734375 84.191406 63.707031 86.597656 C 63.671875 89.851562 63.671875 89.851562 63.078125 90.527344 C 62.71875 90.730469 62.402344 90.710938 62 90.703125 C 61.925781 90.703125 61.851562 90.703125 61.773438 90.703125 C 61.375 90.699219 61.0625 90.695312 60.75 90.417969 C 60.496094 90.035156 60.464844 89.695312 60.472656 89.25 C 60.476562 89.1875 60.476562 89.128906 60.476562 89.0625 C 60.488281 88.480469 60.5625 87.910156 60.667969 87.332031 C 60.5625 87.308594 60.5625 87.308594 60.453125 87.285156 C 59.675781 87.105469 58.917969 86.875 58.160156 86.625 C 58.015625 86.578125 58.015625 86.578125 57.867188 86.527344 C 57.378906 86.367188 56.9375 86.195312 56.5 85.917969 C 56.582031 85.667969 56.582031 85.667969 56.8125 85.546875 C 56.902344 85.503906 56.992188 85.460938 57.082031 85.417969 C 57.984375 84.71875 57.984375 84.71875 58.5 83.75 C 57.214844 83.832031 57.214844 83.832031 55.941406 84.011719 C 54.976562 84.1875 54.035156 84.160156 53.203125 83.597656 C 52.976562 83.414062 52.921875 83.347656 52.824219 83.0625 C 52.832031 82.832031 52.832031 82.832031 53 82.667969 C 53.203125 82.652344 53.398438 82.644531 53.605469 82.648438 C 53.667969 82.648438 53.726562 82.648438 53.789062 82.648438 C 53.921875 82.648438 54.054688 82.648438 54.183594 82.648438 C 54.390625 82.652344 54.597656 82.652344 54.804688 82.652344 C 55.390625 82.652344 55.972656 82.65625 56.554688 82.722656 C 57.808594 82.863281 58.609375 82.519531 59.6875 81.882812 C 59.894531 81.761719 60.105469 81.644531 60.320312 81.53125 C 65.828125 78.601562 70.183594 73.941406 72.335938 68.050781 C 72.410156 67.851562 72.484375 67.652344 72.558594 67.457031 C 72.890625 66.570312 73.121094 65.671875 73.332031 64.75 C 73.355469 64.652344 73.378906 64.554688 73.402344 64.453125 C 73.582031 63.632812 73.679688 62.800781 73.789062 61.96875 C 73.871094 61.328125 73.964844 60.691406 74.074219 60.058594 C 74.320312 58.582031 74.476562 57.09375 74.65625 55.609375 C 74.722656 55.054688 74.792969 54.496094 74.863281 53.941406 C 75.042969 52.539062 75.210938 51.136719 75.355469 49.730469 C 75.359375 49.660156 75.367188 49.59375 75.375 49.523438 C 75.539062 47.933594 75.539062 47.933594 75.609375 46.339844 C 75.613281 46.261719 75.613281 46.1875 75.617188 46.109375 C 75.621094 45.769531 75.617188 45.558594 75.445312 45.257812 C 75.164062 45.007812 74.855469 44.832031 74.53125 44.644531 C 74.332031 44.5 74.332031 44.5 74.265625 44.316406 C 74.257812 44.265625 74.253906 44.21875 74.25 44.167969 C 74.59375 43.867188 74.976562 43.796875 75.410156 43.6875 C 75.769531 43.542969 75.921875 43.332031 76.085938 42.984375 C 76.363281 42.101562 76.351562 41.191406 76 40.332031 C 75.972656 40.261719 75.941406 40.191406 75.914062 40.121094 C 75.636719 39.5 75.230469 39.042969 74.667969 38.667969 C 73.144531 38.492188 71.871094 39.011719 70.675781 39.9375 C 68.773438 41.558594 67.960938 44.09375 67.328125 46.425781 C 67.28125 46.589844 67.238281 46.75 67.191406 46.910156 C 66.996094 47.667969 66.992188 48.3125 67.082031 49.082031 C 67.097656 49.203125 67.109375 49.328125 67.121094 49.449219 C 67.15625 49.765625 67.191406 50.082031 67.226562 50.402344 C 67.25 50.597656 67.273438 50.792969 67.296875 50.988281 C 67.308594 51.113281 67.324219 51.238281 67.339844 51.363281 C 67.34375 51.421875 67.351562 51.480469 67.359375 51.539062 C 67.394531 51.835938 67.4375 52.125 67.5 52.417969 C 67.566406 53.03125 67.59375 53.652344 67.597656 54.269531 C 67.601562 54.375 67.601562 54.476562 67.601562 54.585938 C 67.582031 54.832031 67.582031 54.832031 67.417969 55 C 67.160156 55.019531 67.0625 55.019531 66.832031 54.917969 C 66.519531 54.625 66.191406 54.304688 66 53.917969 C 65.746094 53.910156 65.578125 53.917969 65.332031 54 C 65.25 54.140625 65.25 54.140625 65.167969 54.332031 C 65.082031 54.484375 65 54.632812 64.914062 54.78125 C 64.171875 56.097656 63.480469 57.441406 62.8125 58.796875 C 62.574219 59.28125 62.320312 59.757812 62.0625 60.230469 C 62.027344 60.292969 61.992188 60.355469 61.957031 60.421875 C 61.621094 61.035156 61.621094 61.035156 61.332031 61.25 C 61.144531 61.285156 61.144531 61.285156 60.953125 61.277344 C 60.890625 61.273438 60.824219 61.273438 60.761719 61.269531 C 60.582031 61.25 60.582031 61.25 60.332031 61.167969 C 59.921875 61.117188 59.605469 61.09375 59.261719 61.332031 C 58.871094 61.878906 58.660156 62.472656 58.4375 63.101562 C 58.332031 63.332031 58.332031 63.332031 58.082031 63.5 C 57.824219 63.242188 57.980469 62.371094 57.976562 62.019531 C 57.984375 61.183594 58.070312 60.398438 58.25 59.582031 C 56.683594 59.90625 55.355469 61.144531 54.222656 62.210938 C 54.039062 62.378906 53.851562 62.546875 53.660156 62.707031 C 53.066406 63.222656 52.507812 63.789062 52 64.390625 C 51.867188 64.546875 51.730469 64.699219 51.59375 64.851562 C 50.914062 65.625 50.277344 66.421875 49.667969 67.25 C 49.625 67.308594 49.582031 67.363281 49.539062 67.421875 C 48.414062 68.9375 47.589844 70.519531 46.902344 72.273438 C 46.445312 73.425781 46.445312 73.425781 46.082031 73.917969 C 45.855469 74.003906 45.855469 74.003906 45.667969 74 C 45.582031 73.917969 45.582031 73.917969 45.558594 73.632812 C 45.566406 73.183594 45.714844 72.789062 45.871094 72.371094 C 46.042969 71.882812 46.199219 71.433594 46.25 70.917969 C 45.757812 71.046875 45.402344 71.253906 45.132812 71.6875 C 45.066406 71.820312 44.996094 71.949219 44.929688 72.085938 C 44.832031 72.25 44.832031 72.25 44.582031 72.417969 C 44.472656 72.417969 44.363281 72.417969 44.25 72.417969 C 44.132812 71.234375 45.0625 70.230469 45.75 69.332031 C 45.941406 69.105469 46.136719 68.886719 46.339844 68.671875 C 46.480469 68.519531 46.613281 68.363281 46.746094 68.199219 C 47.105469 67.773438 47.5625 67.445312 48.011719 67.117188 C 48.878906 66.476562 49.625 65.675781 50.292969 64.832031 C 50.910156 64.089844 51.589844 63.398438 52.28125 62.722656 C 52.425781 62.570312 52.5625 62.414062 52.699219 62.25 C 52.769531 62.167969 52.84375 62.085938 52.917969 62 C 52.972656 62 53.027344 62 53.082031 62 C 53.101562 61.953125 53.125 61.902344 53.144531 61.855469 C 53.269531 61.628906 53.414062 61.5 53.609375 61.332031 C 53.851562 61.121094 54.09375 60.90625 54.328125 60.683594 C 56.085938 59.007812 58.179688 57.511719 60.511719 56.785156 C 61.859375 56.355469 62.4375 55.410156 63.058594 54.210938 C 63.238281 53.855469 63.410156 53.5 63.578125 53.140625 C 63.609375 53.074219 63.640625 53.011719 63.671875 52.945312 C 64.164062 51.847656 64.210938 50.769531 64.203125 49.589844 C 64.203125 49.511719 64.203125 49.433594 64.203125 49.355469 C 64.195312 47.964844 64.089844 46.621094 63.832031 45.25 C 63.816406 45.148438 63.816406 45.148438 63.796875 45.046875 C 63.609375 44.101562 63.210938 43.007812 62.5 42.332031 C 62.5 42.277344 62.5 42.222656 62.5 42.167969 C 62.242188 42.03125 61.984375 41.925781 61.714844 41.828125 C 61.636719 41.800781 61.558594 41.769531 61.480469 41.742188 C 59.765625 41.179688 57.621094 41.644531 55.886719 41.90625 C 53.75 42.222656 53.75 42.222656 53.339844 41.992188 C 53.21875 41.890625 53.109375 41.777344 53 41.667969 C 52.53125 41.53125 52.027344 41.5625 51.542969 41.558594 C 51.378906 41.558594 51.210938 41.554688 51.046875 41.550781 C 48.871094 41.535156 47.554688 42.867188 46.070312 44.269531 C 44.28125 45.964844 44.28125 45.964844 43.582031 46.082031 C 43.585938 46.027344 43.585938 45.972656 43.589844 45.914062 C 43.59375 45.660156 43.601562 45.40625 43.605469 45.152344 C 43.605469 45.0625 43.609375 44.976562 43.613281 44.882812 C 43.621094 44.375 43.621094 44.375 43.4375 43.90625 C 43.089844 43.617188 42.828125 43.539062 42.382812 43.554688 C 41.015625 43.742188 39.652344 44.890625 38.550781 45.652344 C 36.621094 46.984375 36.621094 46.984375 35.75 46.832031 C 35.460938 46.660156 35.265625 46.492188 35.167969 46.167969 C 35.117188 45.828125 35.09375 45.625 35.269531 45.324219 C 35.730469 44.757812 36.332031 44.460938 36.972656 44.132812 C 37.042969 44.097656 37.113281 44.0625 37.1875 44.027344 C 37.328125 43.953125 37.46875 43.882812 37.609375 43.816406 C 38.136719 43.546875 38.480469 43.3125 38.671875 42.734375 C 38.867188 42.03125 38.96875 41.382812 38.980469 40.652344 C 38.980469 40.539062 38.984375 40.429688 38.984375 40.316406 C 39.023438 38.351562 39.007812 36.386719 39.003906 34.417969 C 39.003906 33.910156 39.003906 33.398438 39.003906 32.890625 C 39.003906 31.734375 39 30.574219 39 29.417969 C 38.8125 29.457031 38.628906 29.492188 38.445312 29.53125 C 38.339844 29.554688 38.238281 29.574219 38.128906 29.597656 C 37.882812 29.65625 37.648438 29.722656 37.40625 29.808594 C 36.949219 29.953125 36.476562 29.976562 36 29.917969 C 35.945312 29.863281 35.890625 29.808594 35.832031 29.75 C 35.839844 29.476562 35.894531 29.359375 36.078125 29.15625 C 36.707031 28.773438 37.414062 28.703125 38.136719 28.652344 C 38.21875 28.644531 38.304688 28.636719 38.390625 28.628906 C 38.59375 28.613281 38.796875 28.597656 39 28.582031 C 38.996094 27.617188 38.988281 26.648438 38.980469 25.683594 C 38.976562 25.234375 38.972656 24.785156 38.972656 24.335938 C 38.96875 23.898438 38.964844 23.464844 38.960938 23.03125 C 38.960938 22.867188 38.960938 22.703125 38.957031 22.535156 C 38.996094 20.859375 38.996094 20.859375 38.417969 19.332031 C 38.042969 19.144531 37.574219 19.203125 37.167969 19.25 C 35.988281 19.679688 35.386719 20.878906 34.867188 21.9375 C 34.003906 23.917969 33.726562 26.121094 33.5625 28.253906 C 33.484375 29.25 33.34375 30.234375 33.164062 31.214844 C 32.921875 32.554688 32.808594 33.890625 32.75 35.25 C 32.746094 35.328125 32.742188 35.402344 32.738281 35.484375 C 32.660156 37.273438 32.648438 39.0625 32.648438 40.855469 C 32.644531 41.175781 32.644531 41.5 32.644531 41.824219 C 32.449219 44.726562 32.449219 44.726562 33 47.5 C 33.082031 48.152344 32.824219 48.53125 32.5 49.082031 C 31.070312 51.730469 30.980469 54.832031 30.988281 57.777344 C 30.988281 58.015625 30.988281 58.253906 30.988281 58.488281 C 30.988281 58.640625 30.988281 58.792969 30.988281 58.941406 C 30.988281 59.015625 30.988281 59.085938 30.988281 59.15625 C 30.980469 59.507812 30.980469 59.507812 31.082031 59.832031 C 31.675781 59.894531 32.160156 59.710938 32.710938 59.515625 C 33.105469 59.378906 33.441406 59.324219 33.859375 59.328125 C 33.933594 59.328125 34.007812 59.328125 34.082031 59.332031 C 34.164062 59.332031 34.164062 59.332031 34.25 59.332031 C 34.300781 59.484375 34.300781 59.484375 34.332031 59.667969 C 33.738281 60.671875 32.140625 61.226562 31.082031 61.582031 C 31 61.582031 30.917969 61.582031 30.832031 61.582031 C 30.871094 62.183594 30.910156 62.785156 30.949219 63.382812 C 30.96875 63.660156 30.988281 63.941406 31.003906 64.21875 C 31.089844 65.546875 31.199219 66.855469 31.417969 68.167969 C 31.429688 68.257812 31.429688 68.257812 31.445312 68.347656 C 32.222656 73.109375 33.617188 78.09375 37.105469 81.609375 C 37.152344 81.65625 37.199219 81.703125 37.246094 81.753906 C 37.335938 81.847656 37.429688 81.9375 37.523438 82.03125 C 37.734375 82.246094 37.832031 82.359375 37.832031 82.667969 C 37.804688 82.75 37.777344 82.832031 37.75 82.917969 C 37.722656 83 37.699219 83.082031 37.671875 83.164062 C 37.621094 83.296875 37.621094 83.296875 37.574219 83.433594 C 37.515625 83.585938 37.515625 83.585938 37.460938 83.742188 C 37.371094 83.984375 37.277344 84.230469 37.1875 84.472656 C 36.605469 86.03125 36.167969 87.609375 35.785156 89.230469 C 35.664062 89.753906 35.539062 90.277344 35.402344 90.796875 C 35.375 90.894531 35.351562 90.988281 35.324219 91.089844 C 35.261719 91.296875 35.1875 91.476562 35.082031 91.667969 C 35.027344 91.667969 34.972656 91.667969 34.917969 91.667969 C 34.726562 91.257812 34.609375 90.875 34.535156 90.425781 C 34.527344 90.375 34.519531 90.320312 34.507812 90.265625 C 34.300781 89.050781 34.210938 87.820312 34.117188 86.59375 C 34.011719 85.21875 33.894531 83.84375 33.734375 82.476562 C 33.71875 82.332031 33.699219 82.183594 33.683594 82.039062 C 33.597656 81.289062 33.503906 80.601562 33.167969 79.917969 C 33.070312 79.71875 32.976562 79.519531 32.882812 79.320312 C 32.84375 79.242188 32.84375 79.242188 32.804688 79.160156 C 32.535156 78.578125 32.328125 77.976562 32.128906 77.363281 C 32.109375 77.304688 32.089844 77.246094 32.070312 77.183594 C 30.859375 73.480469 30.148438 69.664062 29.730469 65.792969 C 29.722656 65.726562 29.714844 65.664062 29.707031 65.597656 C 29.5625 64.230469 29.484375 62.875 29.484375 61.503906 C 29.484375 61.433594 29.484375 61.363281 29.480469 61.292969 C 29.480469 60.925781 29.480469 60.558594 29.480469 60.191406 C 29.480469 59.894531 29.476562 59.601562 29.476562 59.304688 C 29.453125 55.871094 29.65625 52.355469 30.753906 49.070312 C 30.816406 48.878906 30.867188 48.703125 30.902344 48.503906 C 30.910156 48.445312 30.921875 48.386719 30.933594 48.328125 C 30.941406 48.265625 30.953125 48.207031 30.964844 48.144531 C 30.972656 48.085938 30.984375 48.027344 30.996094 47.96875 C 31.152344 47.058594 31.191406 46.140625 31.222656 45.21875 C 31.230469 45.085938 31.234375 44.953125 31.238281 44.816406 C 31.25 44.535156 31.261719 44.253906 31.269531 43.972656 C 31.296875 43.242188 31.324219 42.511719 31.355469 41.78125 C 31.355469 41.710938 31.359375 41.640625 31.363281 41.566406 C 31.441406 39.480469 31.535156 37.398438 31.671875 35.316406 C 31.683594 35.164062 31.683594 35.164062 31.691406 35.007812 C 31.699219 34.914062 31.703125 34.820312 31.710938 34.726562 C 31.714844 34.644531 31.722656 34.566406 31.726562 34.480469 C 31.75 34.234375 31.792969 33.996094 31.832031 33.75 C 31.84375 33.554688 31.851562 33.359375 31.859375 33.160156 C 31.894531 32.421875 32 31.695312 32.105469 30.964844 C 32.199219 30.308594 32.28125 29.652344 32.355469 28.996094 C 32.363281 28.914062 32.375 28.835938 32.382812 28.753906 C 32.425781 28.351562 32.46875 27.953125 32.511719 27.554688 C 32.734375 25.515625 33.03125 23.367188 33.917969 21.5 C 33.941406 21.449219 33.964844 21.394531 33.992188 21.34375 C 34.828125 19.601562 36.132812 18.339844 37.945312 17.65625 C 38.3125 17.535156 38.683594 17.441406 39.058594 17.351562 C 39.570312 17.160156 39.851562 16.863281 40.074219 16.378906 C 40.101562 16.320312 40.125 16.265625 40.152344 16.207031 C 40.898438 14.628906 41.980469 13.367188 43.640625 12.726562 C 44.007812 12.609375 44.351562 12.574219 44.734375 12.570312 C 44.828125 12.570312 44.921875 12.570312 45.015625 12.570312 C 45.113281 12.570312 45.207031 12.574219 45.308594 12.574219 C 45.402344 12.574219 45.496094 12.574219 45.59375 12.570312 C 46.152344 12.574219 46.695312 12.597656 47.25 12.667969 C 47.28125 12.5625 47.28125 12.5625 47.316406 12.453125 C 47.941406 10.683594 49.210938 9.253906 50.898438 8.449219 C 51.03125 8.390625 51.03125 8.390625 51.167969 8.332031 C 51.242188 8.300781 51.316406 8.269531 51.394531 8.238281 C 52.304688 8.003906 53.535156 8.015625 54.375 8.449219 Z M 54.375 8.449219 "/>
<path style=" stroke:none;fill-rule:nonzero;fill:rgb(99.215686%,99.215686%,99.215686%);fill-opacity:1;" d="M 52.996094 9.414062 C 53.835938 9.824219 54.484375 10.5 54.832031 11.371094 C 54.875 11.554688 54.898438 11.730469 54.917969 11.917969 C 54.921875 11.980469 54.929688 12.039062 54.9375 12.105469 C 55.007812 12.804688 55.023438 13.507812 55.039062 14.214844 C 55.042969 14.351562 55.046875 14.488281 55.046875 14.625 C 55.054688 14.921875 55.0625 15.214844 55.066406 15.511719 C 55.078125 15.980469 55.089844 16.453125 55.101562 16.921875 C 55.132812 18.40625 55.167969 19.890625 55.195312 21.371094 C 55.210938 22.15625 55.226562 22.945312 55.246094 23.730469 C 55.246094 23.84375 55.246094 23.84375 55.25 23.960938 C 55.292969 26.035156 55.363281 28.101562 55.484375 30.171875 C 55.558594 31.386719 55.605469 32.597656 55.605469 33.8125 C 55.605469 33.875 55.605469 33.9375 55.605469 34.003906 C 55.597656 35.980469 55.425781 38.121094 54.027344 39.652344 C 53.1875 40.445312 51.992188 40.53125 50.894531 40.511719 C 50.007812 40.480469 50.007812 40.480469 49.753906 40.300781 C 49.523438 39.949219 49.554688 39.535156 49.539062 39.128906 C 49.519531 38.703125 49.519531 38.703125 49.332031 38.332031 C 49.179688 38.234375 49.179688 38.234375 49.003906 38.167969 C 48.71875 38.046875 48.570312 37.941406 48.417969 37.667969 C 48.359375 37.429688 48.316406 37.207031 48.28125 36.96875 C 48.269531 36.910156 48.261719 36.847656 48.25 36.785156 C 48.046875 35.507812 48.066406 34.214844 48.0625 32.925781 C 48.0625 32.71875 48.058594 32.507812 48.058594 32.300781 C 48.046875 30.402344 48.042969 28.507812 48.039062 26.609375 C 48.035156 26.355469 48.035156 26.101562 48.035156 25.847656 C 48.035156 25.785156 48.035156 25.722656 48.035156 25.65625 C 48.03125 24.636719 48.027344 23.617188 48.019531 22.597656 C 48.015625 21.546875 48.011719 20.496094 48.007812 19.445312 C 48.007812 18.859375 48.007812 18.269531 48 17.679688 C 47.996094 17.128906 47.996094 16.574219 47.996094 16.019531 C 47.996094 15.816406 47.996094 15.617188 47.992188 15.414062 C 47.96875 13.695312 48.390625 12.40625 49.5 11.082031 C 49.558594 11.011719 49.613281 10.941406 49.671875 10.871094 C 50.527344 9.863281 51.601562 8.953125 52.996094 9.414062 Z M 52.996094 9.414062 "/>
<path style=" stroke:none;fill-rule:nonzero;fill:rgb(99.215686%,99.215686%,99.215686%);fill-opacity:1;" d="M 45.414062 13.757812 C 45.605469 13.878906 45.757812 14.003906 45.917969 14.167969 C 45.964844 14.214844 46.011719 14.261719 46.0625 14.308594 C 46.53125 14.808594 46.699219 15.347656 46.761719 16.019531 C 46.769531 16.117188 46.769531 16.117188 46.78125 16.214844 C 46.851562 16.960938 46.890625 17.710938 46.925781 18.460938 C 46.929688 18.535156 46.933594 18.609375 46.9375 18.6875 C 47.011719 20.3125 47.027344 21.933594 47.03125 23.554688 C 47.03125 23.949219 47.035156 24.34375 47.035156 24.734375 C 47.039062 25.476562 47.042969 26.214844 47.042969 26.957031 C 47.046875 28.28125 47.054688 29.605469 47.058594 30.929688 C 47.0625 31.390625 47.0625 31.851562 47.066406 32.3125 C 47.070312 33.835938 47.085938 35.355469 47.136719 36.878906 C 47.175781 37.976562 47.175781 39.070312 47.167969 40.167969 C 47.085938 40.167969 47.007812 40.167969 46.925781 40.171875 C 45.242188 40.21875 43.820312 40.847656 42.410156 41.738281 C 42.042969 41.953125 41.664062 41.996094 41.25 41.917969 C 40.800781 41.660156 40.527344 41.324219 40.371094 40.832031 C 40.292969 40.492188 40.238281 40.171875 40.238281 39.820312 C 40.238281 39.734375 40.238281 39.648438 40.234375 39.558594 C 40.234375 39.464844 40.234375 39.371094 40.234375 39.273438 C 40.234375 39.171875 40.234375 39.070312 40.234375 38.964844 C 40.234375 38.679688 40.234375 38.390625 40.234375 38.105469 C 40.234375 37.921875 40.234375 37.738281 40.234375 37.554688 C 40.234375 34.953125 40.28125 32.355469 40.328125 29.753906 C 40.332031 29.609375 40.332031 29.609375 40.332031 29.457031 C 40.574219 16.386719 40.574219 16.386719 42.261719 14.554688 C 42.445312 14.382812 42.632812 14.230469 42.832031 14.082031 C 42.894531 14.039062 42.953125 13.996094 43.011719 13.949219 C 43.6875 13.535156 44.671875 13.480469 45.414062 13.757812 Z M 45.414062 13.757812 "/>
<path style=" stroke:none;fill-rule:nonzero;fill:rgb(99.215686%,99.215686%,99.215686%);fill-opacity:1;" d="M 60.078125 13.296875 C 61.234375 14.105469 61.691406 15.722656 61.945312 17.042969 C 61.976562 17.234375 62.011719 17.425781 62.042969 17.621094 C 62.058594 17.726562 62.078125 17.832031 62.09375 17.941406 C 62.285156 19.148438 62.402344 20.363281 62.523438 21.578125 C 62.570312 22.050781 62.625 22.523438 62.679688 22.996094 C 62.972656 25.464844 63.171875 27.945312 63.375 30.421875 C 63.40625 30.769531 63.433594 31.121094 63.464844 31.46875 C 63.605469 33.148438 63.691406 34.820312 63.699219 36.503906 C 63.699219 36.582031 63.699219 36.660156 63.699219 36.742188 C 63.710938 38.585938 63.710938 38.585938 63.277344 39.195312 C 62.273438 40.003906 61.09375 40.113281 59.84375 40.121094 C 59.753906 40.121094 59.664062 40.125 59.570312 40.128906 C 58.832031 40.132812 58.832031 40.132812 58.535156 39.898438 C 58.355469 39.691406 58.230469 39.515625 58.113281 39.269531 C 57.808594 38.726562 57.339844 38.433594 56.832031 38.082031 C 56.359375 37.714844 56.359375 37.714844 56.25 37.5 C 56.207031 36.984375 56.261719 36.476562 56.332031 35.964844 C 56.441406 35.125 56.4375 34.285156 56.433594 33.4375 C 56.433594 33.175781 56.433594 32.914062 56.433594 32.652344 C 56.433594 32.484375 56.429688 32.316406 56.429688 32.148438 C 56.429688 32.03125 56.429688 32.03125 56.429688 31.914062 C 56.425781 31.453125 56.398438 31 56.351562 30.539062 C 56.328125 30.289062 56.316406 30.042969 56.308594 29.792969 C 56.308594 29.699219 56.304688 29.605469 56.300781 29.511719 C 56.296875 29.414062 56.292969 29.320312 56.292969 29.222656 C 56.273438 28.65625 56.253906 28.085938 56.207031 27.519531 C 56.15625 26.832031 56.136719 26.148438 56.121094 25.457031 C 56.117188 25.386719 56.117188 25.3125 56.113281 25.238281 C 56.074219 23.402344 56.070312 21.566406 56.066406 19.730469 C 56.066406 19.484375 56.066406 19.238281 56.066406 18.992188 C 56.066406 18.601562 56.0625 18.210938 56.0625 17.816406 C 56.0625 17.671875 56.0625 17.523438 56.0625 17.378906 C 56.058594 15.96875 56.21875 14.878906 57.246094 13.835938 C 58.046875 13.097656 59.042969 12.75 60.078125 13.296875 Z M 60.078125 13.296875 "/>
<path style=" stroke:none;fill-rule:nonzero;fill:rgb(0.784314%,0.784314%,0.784314%);fill-opacity:1;" d="M 48.417969 82 C 48.496094 82.253906 48.511719 82.308594 48.394531 82.566406 C 47.921875 83.207031 47.042969 83.53125 46.339844 83.859375 C 46.089844 83.996094 45.929688 84.117188 45.75 84.332031 C 45.714844 84.550781 45.714844 84.550781 45.75 84.75 C 45.886719 84.886719 46.066406 84.863281 46.253906 84.878906 C 46.332031 84.886719 46.410156 84.894531 46.488281 84.902344 C 46.574219 84.910156 46.574219 84.910156 46.667969 84.917969 C 46.707031 85.082031 46.707031 85.082031 46.75 85.25 C 46.664062 85.304688 46.574219 85.355469 46.484375 85.410156 C 46.160156 85.613281 45.84375 85.824219 45.527344 86.042969 C 45.4375 86.101562 45.347656 86.164062 45.253906 86.226562 C 45.007812 86.414062 44.800781 86.613281 44.582031 86.832031 C 44.074219 87.273438 43.492188 87.546875 42.886719 87.828125 C 42.007812 88.234375 41.21875 88.65625 40.546875 89.367188 C 40.148438 89.773438 39.8125 89.957031 39.242188 90.011719 C 39.082031 90 39.082031 90 38.917969 89.832031 C 38.894531 89.59375 38.894531 89.59375 38.890625 89.28125 C 38.890625 89.167969 38.886719 89.054688 38.886719 88.9375 C 38.882812 88.847656 38.882812 88.847656 38.882812 88.753906 C 38.867188 87.542969 38.773438 86.363281 38.582031 85.167969 C 38.554688 84.972656 38.527344 84.777344 38.5 84.582031 C 38.550781 84.597656 38.597656 84.613281 38.648438 84.628906 C 38.875 84.695312 39.101562 84.761719 39.328125 84.828125 C 39.40625 84.851562 39.484375 84.875 39.5625 84.898438 C 40.242188 85.097656 40.878906 85.179688 41.589844 85.171875 C 41.683594 85.171875 41.777344 85.171875 41.871094 85.167969 C 41.976562 85.167969 41.976562 85.167969 42.082031 85.167969 C 42.109375 85.058594 42.136719 84.945312 42.167969 84.832031 C 42.046875 84.726562 41.925781 84.617188 41.808594 84.511719 C 41.707031 84.421875 41.707031 84.421875 41.605469 84.328125 C 41.414062 84.15625 41.414062 84.15625 41.167969 84 C 41.179688 83.804688 41.179688 83.804688 41.25 83.582031 C 41.882812 83.171875 42.726562 83.019531 43.453125 82.839844 C 43.507812 82.824219 43.5625 82.8125 43.621094 82.796875 C 44.453125 82.585938 45.289062 82.390625 46.128906 82.207031 C 46.226562 82.1875 46.320312 82.164062 46.417969 82.144531 C 47.089844 82.003906 47.730469 81.976562 48.417969 82 Z M 48.417969 82 "/>
<path style=" stroke:none;fill-rule:nonzero;fill:rgb(1.960784%,1.960784%,1.960784%);fill-opacity:1;" d="M 57.417969 55.167969 C 56.863281 55.691406 56.296875 56.1875 55.691406 56.65625 C 55.355469 56.917969 55.027344 57.1875 54.703125 57.464844 C 54.222656 57.875 53.722656 58.265625 53.21875 58.648438 C 53 58.8125 52.785156 58.980469 52.566406 59.144531 C 52.523438 59.179688 52.480469 59.210938 52.4375 59.246094 C 51.972656 59.601562 51.515625 59.960938 51.054688 60.320312 C 50.6875 60.605469 50.316406 60.890625 49.949219 61.171875 C 49.367188 61.617188 48.800781 62.078125 48.234375 62.542969 C 48.101562 62.652344 47.96875 62.761719 47.832031 62.871094 C 47.378906 63.238281 46.933594 63.613281 46.488281 63.992188 C 46.199219 64.238281 45.90625 64.476562 45.613281 64.714844 C 45.222656 65.03125 44.851562 65.367188 44.480469 65.710938 C 44.183594 65.976562 43.871094 66.226562 43.5625 66.476562 C 43.328125 66.671875 43.101562 66.875 42.875 67.082031 C 42.503906 67.425781 42.117188 67.746094 41.722656 68.066406 C 41.503906 68.246094 41.292969 68.433594 41.082031 68.625 C 40.730469 68.945312 40.367188 69.25 39.996094 69.550781 C 39.722656 69.773438 39.453125 70 39.1875 70.230469 C 38.832031 70.53125 38.472656 70.820312 38.082031 71.082031 C 38.027344 71.054688 37.972656 71.027344 37.917969 71 C 38.371094 70.347656 38.859375 69.742188 39.378906 69.140625 C 39.5 69 39.617188 68.863281 39.734375 68.722656 C 40.722656 67.546875 41.792969 66.449219 42.875 65.363281 C 42.917969 65.320312 42.960938 65.277344 43.003906 65.234375 C 43.488281 64.75 43.976562 64.277344 44.5 63.832031 C 44.597656 63.746094 44.699219 63.660156 44.796875 63.570312 C 45.4375 63.011719 46.085938 62.472656 46.757812 61.957031 C 46.929688 61.824219 47.101562 61.6875 47.269531 61.554688 C 48.136719 60.875 49.019531 60.21875 49.917969 59.582031 C 50.023438 59.507812 50.023438 59.507812 50.136719 59.429688 C 52.03125 58.082031 53.992188 56.839844 56 55.667969 C 56.0625 55.628906 56.125 55.59375 56.191406 55.554688 C 56.34375 55.464844 56.496094 55.378906 56.652344 55.292969 C 56.730469 55.246094 56.808594 55.203125 56.886719 55.160156 C 57.105469 55.074219 57.199219 55.082031 57.417969 55.167969 Z M 57.417969 55.167969 "/>
<path style=" stroke:none;fill-rule:nonzero;fill:rgb(2.352941%,2.352941%,2.352941%);fill-opacity:1;" d="M 56.082031 48.75 C 55.78125 49.515625 54.664062 49.964844 53.984375 50.347656 C 53.890625 50.402344 53.796875 50.457031 53.699219 50.511719 C 52.835938 51.003906 51.964844 51.476562 51.09375 51.945312 C 50.824219 52.085938 50.558594 52.230469 50.292969 52.375 C 47.46875 53.910156 44.589844 55.304688 41.617188 56.527344 C 41.476562 56.585938 41.335938 56.644531 41.199219 56.699219 C 41.003906 56.78125 40.808594 56.859375 40.613281 56.9375 C 40.554688 56.964844 40.496094 56.988281 40.4375 57.011719 C 40.027344 57.175781 40.027344 57.175781 39.75 57.082031 C 40.59375 56.429688 41.503906 55.886719 42.417969 55.332031 C 42.484375 55.292969 42.554688 55.25 42.625 55.207031 C 43.109375 54.914062 43.59375 54.621094 44.082031 54.332031 C 44.164062 54.285156 44.246094 54.238281 44.332031 54.1875 C 45.609375 53.433594 46.902344 52.726562 48.226562 52.054688 C 48.488281 51.921875 48.753906 51.785156 49.019531 51.648438 C 54.679688 48.75 54.679688 48.75 56.082031 48.75 Z M 56.082031 48.75 "/>
<path style=" stroke:none;fill-rule:nonzero;fill:rgb(1.568628%,1.568628%,1.568628%);fill-opacity:1;" d="M 51.667969 22.140625 C 51.765625 22.140625 51.867188 22.136719 51.96875 22.136719 C 52.292969 22.171875 52.515625 22.265625 52.75 22.5 C 52.71875 23.03125 52.71875 23.03125 52.523438 23.226562 C 52.289062 23.359375 52.136719 23.363281 51.867188 23.359375 C 51.78125 23.359375 51.691406 23.359375 51.601562 23.359375 C 51.507812 23.359375 51.417969 23.355469 51.324219 23.355469 C 51.230469 23.355469 51.136719 23.351562 51.042969 23.351562 C 50.359375 23.347656 50.359375 23.347656 50.167969 23.25 C 50.136719 23.027344 50.136719 23.027344 50.167969 22.75 C 50.617188 22.289062 51.019531 22.144531 51.667969 22.140625 Z M 51.667969 22.140625 "/>
<path style=" stroke:none;fill-rule:nonzero;fill:rgb(2.745098%,2.745098%,2.745098%);fill-opacity:1;" d="M 44.582031 23.832031 C 44.664062 23.886719 44.75 23.941406 44.832031 24 C 44.824219 24.1875 44.824219 24.1875 44.75 24.417969 C 44.3125 24.777344 43.824219 24.976562 43.265625 25.03125 C 43 25 43 25 42.832031 24.910156 C 42.691406 24.632812 42.742188 24.457031 42.832031 24.167969 C 43.324219 23.722656 43.949219 23.765625 44.582031 23.832031 Z M 44.582031 23.832031 "/>
<path style=" stroke:none;fill-rule:nonzero;fill:rgb(3.529412%,3.529412%,3.529412%);fill-opacity:1;" d="M 60 30.417969 C 60.253906 30.558594 60.253906 30.558594 60.417969 30.75 C 60.453125 30.96875 60.453125 30.96875 60.417969 31.167969 C 60.113281 31.472656 59.640625 31.507812 59.222656 31.53125 C 58.917969 31.5 58.917969 31.5 58.746094 31.359375 C 58.667969 31.167969 58.667969 31.167969 58.660156 30.957031 C 58.898438 30.398438 59.457031 30.316406 60 30.417969 Z M 60 30.417969 "/>
<path style=" stroke:none;fill-rule:nonzero;fill:rgb(1.960784%,1.960784%,1.960784%);fill-opacity:1;" d="M 52.058594 31.558594 C 52.199219 31.558594 52.199219 31.558594 52.34375 31.558594 C 52.582031 31.582031 52.582031 31.582031 52.75 31.75 C 52.75 31.953125 52.75 31.953125 52.667969 32.167969 C 52.238281 32.5 51.6875 32.476562 51.167969 32.417969 C 51.113281 32.363281 51.058594 32.308594 51 32.25 C 51.003906 32.046875 51.003906 32.046875 51.082031 31.832031 C 51.40625 31.585938 51.652344 31.550781 52.058594 31.558594 Z M 52.058594 31.558594 "/>
<path style=" stroke:none;fill-rule:nonzero;fill:rgb(4.313726%,4.313726%,4.313726%);fill-opacity:1;" d="M 36.167969 36.332031 C 36.457031 36.457031 36.457031 36.457031 36.667969 36.582031 C 36.683594 36.824219 36.683594 36.824219 36.667969 37.082031 C 36.328125 37.308594 36.066406 37.292969 35.667969 37.25 C 35.433594 37.183594 35.222656 37.097656 35 37 C 35.050781 36.753906 35.078125 36.671875 35.253906 36.480469 C 35.5625 36.296875 35.820312 36.273438 36.167969 36.332031 Z M 36.167969 36.332031 "/>
<path style=" stroke:none;fill-rule:nonzero;fill:rgb(5.882353%,5.882353%,5.882353%);fill-opacity:1;" d="M 59.582031 21.417969 C 59.796875 21.542969 59.796875 21.542969 59.917969 21.667969 C 59.90625 21.816406 59.90625 21.816406 59.832031 22 C 59.371094 22.359375 58.804688 22.273438 58.25 22.25 C 58.222656 22.167969 58.195312 22.085938 58.167969 22 C 58.535156 21.441406 58.941406 21.335938 59.582031 21.417969 Z M 59.582031 21.417969 "/>
<path style=" stroke:none;fill-rule:nonzero;fill:rgb(1.568628%,1.568628%,1.568628%);fill-opacity:1;" d="M 44.25 34.75 C 44.277344 34.859375 44.304688 34.96875 44.332031 35.082031 C 43.921875 35.347656 43.632812 35.429688 43.144531 35.421875 C 43.070312 35.421875 42.996094 35.421875 42.921875 35.417969 C 42.863281 35.417969 42.808594 35.417969 42.75 35.417969 C 42.722656 35.308594 42.695312 35.195312 42.667969 35.082031 C 43.140625 34.648438 43.632812 34.71875 44.25 34.75 Z M 44.25 34.75 "/>
</g>
</svg>
